<svg id="svg" version="1.1" xmlns="http://www.w3.org/2000/svg" xmlns:xlink="http://www.w3.org/1999/xlink" width="400" height="280.0495662949195" viewBox="0, 0, 400,280.0495662949195"><g id="svgg"><path id="path0" d="M227.375 47.352 C 227.285 47.498,227.263 47.668,227.325 47.730 C 227.498 47.903,228.253 47.561,228.253 47.309 C 228.253 46.999,227.573 47.032,227.375 47.352 M212.228 49.537 C 209.799 51.058,211.058 54.523,214.040 54.523 C 215.518 54.523,215.970 54.847,216.336 56.172 C 216.471 56.660,216.756 57.254,216.971 57.490 C 217.511 58.088,217.239 58.598,216.108 59.108 C 214.594 59.791,213.802 61.884,214.464 63.454 C 214.871 64.421,216.007 65.675,216.476 65.675 C 217.533 65.675,217.962 67.747,217.072 68.549 C 216.293 69.250,215.123 71.406,215.120 72.144 C 215.112 74.294,214.219 74.904,212.415 73.990 C 210.925 73.235,210.535 73.215,209.174 73.824 C 207.348 74.642,206.684 74.080,206.656 71.694 C 206.635 69.970,207.209 69.341,209.187 68.917 C 213.417 68.009,213.993 63.637,210.146 61.629 C 208.454 60.746,208.364 60.586,208.944 59.504 C 210.103 57.340,208.947 55.019,206.709 55.019 C 204.941 55.019,204.373 55.740,204.252 58.136 C 204.146 60.239,203.596 60.967,202.112 60.967 C 200.775 60.967,199.727 62.694,200.241 64.048 C 201.196 66.560,204.461 65.983,204.461 63.303 C 204.461 61.355,205.016 60.426,206.126 60.518 C 207.340 60.618,207.404 61.050,206.426 62.526 C 205.599 63.776,205.465 64.679,205.810 66.693 C 206.063 68.171,205.462 69.581,204.493 69.779 C 202.460 70.196,202.010 70.449,201.634 71.390 C 200.746 73.608,202.029 75.202,204.724 75.231 C 206.708 75.252,207.293 75.622,207.556 77.021 C 208.272 80.841,212.890 81.362,213.915 77.739 C 214.440 75.881,215.240 75.648,216.771 76.909 C 218.689 78.487,221.235 78.597,222.968 77.177 C 223.557 76.694,224.040 76.207,224.040 76.094 C 224.040 75.331,226.367 73.358,227.268 73.358 C 230.640 73.358,231.961 77.179,229.541 79.929 C 227.683 82.040,227.633 84.037,229.386 86.086 C 231.363 88.395,230.871 90.843,228.129 92.342 C 226.525 93.219,225.978 95.028,226.339 98.265 C 226.388 98.702,226.271 98.751,225.350 98.678 C 224.047 98.576,223.048 99.417,223.048 100.616 C 223.048 101.691,222.512 101.780,221.133 100.935 C 219.159 99.725,218.865 97.980,220.351 96.288 C 221.051 95.490,221.102 95.317,220.949 94.239 C 220.511 91.141,221.171 88.666,222.089 89.963 C 222.313 90.279,222.332 90.272,222.218 89.916 C 222.116 89.597,222.360 89.396,223.248 89.069 C 228.370 87.180,225.898 80.077,220.742 81.872 C 220.224 82.053,219.832 82.246,219.873 82.302 C 219.913 82.358,219.626 82.824,219.235 83.337 C 218.206 84.685,217.521 84.775,216.400 83.708 C 214.374 81.780,212.102 82.838,212.464 85.540 C 212.645 86.888,212.429 87.980,211.981 87.980 C 211.401 87.980,211.356 88.579,211.850 89.733 C 212.108 90.337,212.692 92.081,213.148 93.610 C 214.053 96.641,214.411 97.201,213.744 94.542 C 213.460 93.411,213.410 92.825,213.587 92.716 C 214.112 92.391,214.353 91.271,214.097 90.344 C 213.633 88.663,213.873 87.905,214.966 87.600 C 215.496 87.453,216.187 87.031,216.503 86.665 C 217.228 85.822,217.752 85.832,218.809 86.708 C 220.357 87.992,219.857 91.016,217.967 91.806 C 215.844 92.693,215.478 94.725,217.117 96.531 C 218.111 97.627,217.757 99.667,216.346 100.972 C 215.176 102.054,215.118 102.059,215.118 101.074 C 215.118 100.642,215.050 100.357,214.968 100.439 C 214.886 100.521,215.003 102.073,215.229 103.888 C 215.824 108.667,216.140 110.387,216.360 110.032 C 216.508 109.793,216.681 109.815,217.129 110.128 C 218.502 111.090,221.074 110.555,222.638 108.982 C 224.737 106.873,226.685 107.095,227.160 109.498 C 227.354 110.474,227.118 110.768,226.004 110.944 C 225.044 111.095,224.616 111.566,224.388 112.721 C 224.186 113.744,223.845 113.887,222.723 113.418 C 221.065 112.725,219.941 112.808,218.937 113.697 C 215.827 116.451,218.950 121.788,222.587 119.933 C 223.869 119.279,224.154 119.405,224.500 120.779 C 224.800 121.971,225.790 122.924,226.727 122.924 C 227.005 122.924,227.311 123.052,227.408 123.208 C 227.529 123.405,227.376 123.452,226.908 123.363 C 226.436 123.273,226.311 123.312,226.493 123.494 C 226.636 123.637,228.011 123.790,229.548 123.833 L 232.342 123.911 230.731 123.545 C 228.905 123.130,228.415 122.687,228.764 121.767 C 229.233 120.535,228.796 118.470,228.067 118.465 C 227.897 118.464,227.757 118.341,227.757 118.192 C 227.757 118.015,227.221 117.950,226.220 118.006 L 224.683 118.092 224.597 116.645 C 224.502 115.056,224.825 114.386,225.588 114.586 C 226.828 114.910,228.239 113.645,227.885 112.527 C 227.481 111.256,229.597 110.445,230.338 111.586 C 230.633 112.039,230.648 112.339,230.420 113.186 C 230.118 114.307,230.480 115.050,231.483 115.368 C 232.127 115.572,232.250 116.461,231.829 117.853 C 231.213 119.886,232.190 122.568,233.724 123.054 C 234.148 123.189,234.192 123.274,233.924 123.443 C 233.446 123.746,234.256 123.727,235.688 123.403 C 237.068 123.091,240.644 121.445,240.644 121.122 C 240.644 120.992,240.356 121.074,240.003 121.305 C 239.180 121.845,239.154 121.800,239.429 120.326 C 239.643 119.181,239.596 118.961,238.784 117.295 C 237.493 114.647,237.454 112.763,238.691 112.763 C 239.715 112.763,240.452 111.696,240.342 110.373 C 240.161 108.189,241.725 107.516,242.526 109.434 C 243.117 110.849,242.975 111.814,242.007 112.944 C 240.512 114.691,241.171 116.729,243.231 116.729 C 244.793 116.729,245.698 114.808,244.763 113.474 C 243.776 112.064,244.668 108.952,246.311 108.073 C 247.635 107.364,247.786 103.134,246.530 101.923 C 243.471 98.971,239.046 101.319,239.708 105.542 C 239.971 107.218,239.711 107.552,238.012 107.724 C 236.109 107.917,235.351 108.772,235.528 110.529 C 235.603 111.276,235.781 111.927,235.924 111.975 C 236.464 112.155,236.209 113.909,235.546 114.573 C 234.230 115.889,232.942 115.739,233.136 114.292 C 233.241 113.511,233.150 113.220,232.620 112.649 C 231.917 111.890,231.933 111.185,232.680 110.037 C 233.824 108.280,233.970 107.068,233.216 105.590 C 231.885 102.981,229.432 102.814,226.890 105.158 C 225.791 106.171,223.548 104.915,223.545 103.284 C 223.544 102.637,223.604 102.602,224.721 102.594 C 226.179 102.585,226.745 102.176,226.937 100.996 C 227.114 99.908,227.500 99.696,228.325 100.237 C 229.269 100.855,231.269 101.006,232.222 100.531 C 232.662 100.311,233.148 100.204,233.301 100.292 C 233.455 100.379,233.502 100.364,233.406 100.257 C 233.228 100.060,234.237 98.521,234.916 97.955 C 235.568 97.411,236.370 97.619,237.546 98.637 C 239.647 100.455,242.131 99.452,242.131 96.786 C 242.131 95.660,241.824 95.069,240.744 94.122 C 239.739 93.239,239.685 92.679,240.525 91.840 C 241.057 91.308,241.140 91.020,241.092 89.872 C 241.029 88.367,241.378 87.732,242.268 87.732 C 243.394 87.732,243.918 88.728,243.254 89.606 C 242.408 90.725,243.341 93.185,244.613 93.185 C 246.632 93.185,247.544 90.876,246.097 89.429 C 245.058 88.390,245.506 86.741,246.827 86.741 C 247.320 86.741,247.057 82.054,246.522 81.289 C 245.974 80.507,244.851 79.805,244.146 79.803 C 243.647 79.802,243.605 79.744,243.871 79.424 C 244.044 79.216,244.120 78.982,244.042 78.904 C 243.816 78.678,243.371 79.049,243.371 79.463 C 243.371 79.949,242.638 79.808,242.290 79.255 C 242.096 78.947,242.112 78.588,242.349 77.933 C 243.561 74.582,239.214 71.965,237.394 74.949 C 236.297 76.749,237.272 78.942,239.442 79.553 C 240.630 79.887,240.743 80.290,240.170 82.147 C 239.721 83.600,239.715 83.792,240.074 85.217 C 240.508 86.940,240.152 87.980,239.128 87.980 C 237.068 87.980,236.283 90.358,237.828 91.917 C 238.683 92.780,238.579 93.223,237.125 94.908 C 236.013 96.197,235.164 96.174,234.607 94.839 C 234.419 94.391,233.978 93.713,233.625 93.333 C 231.863 91.432,232.039 88.460,234.022 86.624 C 236.581 84.253,236.569 82.421,233.977 79.680 C 232.242 77.846,231.957 75.477,233.339 74.389 C 233.662 74.136,234.110 73.493,234.336 72.961 C 235.235 70.847,235.305 70.758,236.136 70.678 C 236.632 70.630,237.257 70.796,237.768 71.111 C 239.324 72.073,240.882 71.639,241.510 70.068 C 242.218 68.298,241.517 66.833,239.536 65.946 C 238.046 65.279,237.555 64.607,237.612 63.312 C 237.698 61.327,235.254 59.820,234.511 61.399 C 233.829 62.847,234.512 64.436,235.816 64.436 C 236.355 64.436,236.450 64.520,236.306 64.870 C 235.792 66.118,235.937 66.566,236.629 65.874 C 237.196 65.308,236.966 67.279,236.361 68.179 C 235.513 69.440,234.174 69.469,232.733 68.256 C 231.902 67.556,231.739 66.672,232.348 66.166 C 232.663 65.904,232.700 65.920,232.569 66.260 C 232.393 66.719,232.656 66.780,233.209 66.410 C 233.533 66.194,233.523 66.117,233.133 65.818 C 232.849 65.601,232.781 65.415,232.947 65.313 C 233.379 65.045,233.247 64.359,232.573 63.367 C 231.861 62.319,231.904 61.433,232.716 60.401 C 234.680 57.904,231.344 54.385,229.198 56.691 C 227.884 58.104,228.090 59.426,229.885 61.097 L 231.002 62.138 230.591 63.165 C 230.326 63.827,230.238 64.479,230.343 64.996 C 230.842 67.447,230.856 67.369,229.768 68.403 C 229.207 68.936,228.748 69.474,228.748 69.597 C 228.748 71.789,225.323 71.691,223.243 69.440 C 222.873 69.040,222.092 68.478,221.508 68.192 C 219.288 67.104,219.068 66.319,220.423 64.322 C 221.484 62.759,221.155 61.127,219.445 59.470 C 218.389 58.447,218.389 58.422,219.447 57.365 C 220.478 56.333,220.383 56.341,221.516 57.187 C 223.483 58.656,223.668 59.354,222.701 61.652 C 220.979 65.743,224.900 68.920,227.695 65.698 C 229.074 64.108,228.424 62.315,225.682 60.144 C 224.585 59.275,224.274 58.057,224.905 57.094 C 226.633 54.456,223.479 51.328,221.294 53.513 C 220.896 53.911,220.570 54.413,220.570 54.628 C 220.570 55.137,219.670 55.138,219.385 54.629 C 219.262 54.408,218.692 54.179,218.072 54.101 C 216.552 53.908,216.111 53.454,216.099 52.068 C 216.079 49.822,213.973 48.445,212.228 49.537 M222.986 49.834 C 222.468 50.136,222.415 50.558,222.896 50.558 C 223.084 50.558,223.297 50.335,223.368 50.062 C 223.439 49.789,223.480 49.570,223.459 49.574 C 223.438 49.578,223.225 49.695,222.986 49.834 M209.418 59.460 C 209.418 60.242,210.653 60.674,210.846 59.960 C 210.924 59.670,210.893 59.673,210.679 59.975 C 210.535 60.180,210.415 60.234,210.413 60.097 C 210.411 59.959,210.186 59.707,209.913 59.537 C 209.641 59.367,209.418 59.332,209.418 59.460 M236.973 60.982 C 237.033 61.161,237.228 61.356,237.407 61.416 C 237.593 61.478,237.686 61.385,237.624 61.199 C 237.564 61.020,237.369 60.825,237.190 60.765 C 237.004 60.703,236.911 60.796,236.973 60.982 M241.764 62.694 C 241.668 62.850,241.669 63.278,241.767 63.645 L 241.945 64.312 242.190 63.609 C 242.450 62.862,242.111 62.132,241.764 62.694 M227.200 70.233 C 226.678 70.629,226.643 70.880,227.109 70.880 C 227.297 70.880,227.510 70.657,227.581 70.384 C 227.652 70.112,227.693 69.892,227.672 69.896 C 227.651 69.901,227.438 70.052,227.200 70.233 M233.120 75.265 C 232.884 75.501,232.929 76.084,233.183 76.084 C 233.487 76.084,233.731 75.386,233.481 75.232 C 233.370 75.163,233.207 75.178,233.120 75.265 M214.419 78.625 C 214.463 78.931,214.610 79.182,214.746 79.182 C 214.882 79.182,215.029 78.931,215.073 78.625 C 215.127 78.241,215.025 78.067,214.746 78.067 C 214.466 78.067,214.364 78.241,214.419 78.625 M246.655 79.926 C 246.658 80.471,246.708 80.665,246.768 80.356 C 246.827 80.048,246.825 79.602,246.763 79.365 C 246.701 79.128,246.652 79.380,246.655 79.926 M212.543 80.191 C 212.439 80.463,212.518 80.557,212.806 80.501 C 213.032 80.457,213.264 80.282,213.321 80.112 C 213.473 79.656,212.719 79.733,212.543 80.191 M210.905 85.626 C 210.905 85.830,211.072 85.998,211.276 85.998 C 211.481 85.998,211.648 85.830,211.648 85.626 C 211.648 85.421,211.481 85.254,211.276 85.254 C 211.072 85.254,210.905 85.421,210.905 85.626 M246.908 87.980 C 246.929 88.253,247.033 88.476,247.141 88.476 C 247.248 88.476,247.336 88.253,247.336 87.980 C 247.336 87.708,247.231 87.485,247.103 87.485 C 246.976 87.485,246.888 87.708,246.908 87.980 M247.407 96.283 C 247.409 96.964,247.457 97.213,247.514 96.837 C 247.571 96.460,247.569 95.902,247.510 95.598 C 247.451 95.293,247.405 95.601,247.407 96.283 M233.457 104.389 C 233.457 104.739,233.602 104.846,233.995 104.788 C 234.769 104.674,234.829 104.172,234.087 104.031 C 233.588 103.935,233.457 104.010,233.457 104.389 " stroke="none" fill="#f3de3d" fill-rule="evenodd"></path><path id="path1" d="M248.963 46.487 C 245.489 47.893,244.406 50.754,245.095 56.710 C 245.627 61.307,247.423 62.907,252.320 63.145 C 259.676 63.501,262.057 61.486,262.067 54.895 C 262.074 49.979,260.742 47.018,258.279 46.477 C 257.852 46.383,257.439 46.203,257.361 46.078 C 257.029 45.541,250.519 45.858,248.963 46.487 M173.606 68.747 C 154.909 71.495,141.265 90.354,144.359 109.170 C 146.890 124.564,158.841 137.226,172.583 139.075 C 175.619 139.484,182.615 139.200,184.634 138.586 C 192.622 136.156,194.881 133.939,194.048 129.344 C 193.818 128.080,193.191 126.052,192.918 125.693 C 192.884 125.648,192.595 125.781,192.277 125.988 C 191.480 126.507,187.559 127.796,185.481 128.222 C 166.318 132.150,150.795 115.959,155.624 97.080 C 159.742 80.981,178.932 73.822,192.955 83.153 C 200.314 88.049,203.501 94.282,203.970 104.699 C 204.863 124.526,210.678 131.165,228.205 132.366 C 243.263 133.398,253.639 127.741,257.525 116.381 C 260.072 108.934,259.926 92.382,257.157 74.845 C 256.824 72.732,256.478 70.474,256.389 69.827 L 256.227 68.649 254.520 68.649 C 251.065 68.649,248.528 69.750,247.422 71.730 C 246.594 73.212,246.091 78.046,246.667 78.978 C 246.811 79.211,246.889 80.977,246.936 85.068 C 246.951 86.397,247.035 87.485,247.121 87.485 C 247.208 87.485,247.223 89.171,247.154 91.231 C 247.076 93.592,247.122 95.036,247.277 95.135 C 247.531 95.295,247.282 106.315,246.975 108.550 C 246.234 113.930,244.492 118.141,242.334 119.767 C 241.929 120.072,241.307 120.588,240.952 120.913 C 238.484 123.174,228.402 124.995,226.494 123.524 C 226.303 123.377,225.421 122.998,224.535 122.683 C 221.238 121.511,218.215 118.986,217.509 116.813 C 216.863 114.826,215.294 105.332,214.979 101.496 C 214.731 98.484,212.958 92.180,210.935 87.113 C 207.784 79.220,197.047 70.995,187.291 68.999 C 184.759 68.481,176.456 68.329,173.606 68.747 M240.025 155.757 C 239.616 155.967,239.002 156.548,238.662 157.048 L 238.042 157.956 237.975 179.597 C 237.899 204.103,237.771 202.497,239.901 203.841 C 242.586 205.536,245.832 203.906,246.217 200.669 C 246.628 197.219,246.233 158.265,245.779 157.373 C 244.873 155.596,241.940 154.772,240.025 155.757 M290.211 156.072 C 288.395 156.979,288.459 156.268,288.536 174.721 L 288.605 191.202 289.273 193.011 C 294.826 208.041,315.662 208.146,321.097 193.171 C 321.940 190.849,321.968 184.577,321.146 182.144 C 317.994 172.809,306.851 168.072,298.079 172.338 L 296.902 172.911 296.902 165.575 C 296.901 156.160,296.680 155.639,292.689 155.639 C 291.651 155.639,290.769 155.793,290.211 156.072 M189.949 160.860 C 187.639 161.531,187.016 166.192,188.989 168.046 C 189.952 168.951,194.178 168.959,195.137 168.059 C 196.353 166.915,196.503 163.405,195.405 161.730 C 194.719 160.682,192.034 160.254,189.949 160.860 M98.406 170.789 C 94.192 171.488,91.073 174.366,89.279 179.208 L 88.600 181.041 88.527 191.574 C 88.487 197.367,88.517 202.357,88.594 202.664 C 89.162 204.939,94.954 205.106,96.227 202.884 C 96.443 202.507,96.570 199.791,96.669 193.432 C 96.864 180.861,97.541 179.156,102.350 179.130 C 107.509 179.102,108.104 180.497,108.291 193.061 C 108.438 202.860,108.416 202.716,109.878 203.831 C 110.977 204.669,113.749 204.740,115.064 203.964 C 116.576 203.072,116.589 202.987,116.742 193.185 C 116.939 180.644,117.565 179.133,122.562 179.133 C 127.523 179.133,128.164 180.699,128.360 193.309 C 128.460 199.761,128.588 202.506,128.804 202.884 C 130.213 205.343,135.778 204.922,136.565 202.296 C 137.042 200.702,136.751 182.422,136.218 180.545 C 134.981 176.189,132.253 172.686,129.214 171.554 C 124.242 169.700,116.988 170.477,113.504 173.236 L 112.528 174.010 111.382 173.135 C 108.616 171.023,103.056 170.018,98.406 170.789 M204.213 171.206 C 202.868 171.918,202.440 172.979,202.528 175.383 C 202.665 179.109,203.021 179.258,212.170 179.425 L 219.260 179.554 215.061 183.891 C 200.512 198.920,200.991 198.361,200.991 200.272 C 200.991 201.661,201.521 202.762,202.628 203.674 L 203.583 204.461 217.552 204.461 C 231.095 204.461,231.543 204.446,232.214 203.968 C 233.639 202.953,234.150 199.889,233.231 197.864 C 232.377 195.984,232.659 196.035,223.083 196.035 L 214.554 196.035 215.754 194.734 C 216.944 193.444,222.015 188.094,228.614 181.165 C 233.512 176.022,234.048 173.732,230.899 171.398 C 229.861 170.629,205.633 170.455,204.213 171.206 M264.436 170.914 C 255.174 172.768,249.092 181.727,250.950 190.779 C 252.155 196.656,257.064 202.425,261.958 203.717 C 262.571 203.879,263.267 204.113,263.503 204.236 C 266.038 205.559,273.198 203.478,275.736 200.681 L 276.580 199.751 276.580 201.059 C 276.580 204.691,281.856 205.840,284.572 202.801 C 285.097 202.213,285.233 190.443,284.754 186.989 C 283.283 176.369,277.824 171.187,267.782 170.874 C 266.283 170.828,264.777 170.845,264.436 170.914 M153.903 171.397 C 138.967 174.579,136.692 195.898,150.558 202.744 C 156.186 205.524,164.560 203.959,164.560 200.127 C 164.560 196.621,162.633 194.912,159.508 195.648 C 150.382 197.797,145.388 185.019,153.511 180.302 C 159.432 176.863,165.465 181.086,165.895 188.971 C 166.472 199.529,171.009 203.842,181.537 203.841 C 189.996 203.840,195.202 200.489,197.128 193.803 C 198.561 188.833,197.823 173.832,196.063 172.146 C 194.607 170.751,190.907 170.812,189.467 172.255 L 188.724 173.000 188.848 177.516 C 189.251 192.217,188.650 194.782,184.491 196.108 C 179.473 197.707,175.501 195.752,175.092 191.483 C 174.878 189.240,173.851 183.648,173.361 182.057 C 170.971 174.287,162.394 169.588,153.903 171.397 M269.888 179.485 C 273.946 180.489,276.416 185.319,275.220 189.911 C 272.787 199.251,259.253 197.385,259.167 187.697 C 259.114 181.747,263.978 178.023,269.888 179.485 M308.877 180.017 C 315.250 183.135,314.460 193.632,307.700 195.667 C 302.096 197.354,297.274 193.626,297.274 187.608 C 297.274 181.108,303.193 177.236,308.877 180.017 " stroke="none" fill="#434343" fill-rule="evenodd"></path><path id="path2" d="M256.384 69.789 C 256.476 70.457,256.824 72.732,257.157 74.845 C 259.926 92.382,260.072 108.934,257.525 116.381 C 253.639 127.741,243.263 133.398,228.205 132.366 C 210.678 131.165,204.863 124.526,203.970 104.699 C 203.654 97.682,202.677 94.176,199.856 89.932 C 192.361 78.659,176.815 75.637,165.326 83.221 C 160.927 86.124,156.987 91.753,155.624 97.080 C 150.222 118.200,169.481 134.554,190.556 126.742 C 192.959 125.851,193.030 125.719,191.985 124.084 C 189.954 120.910,187.899 120.188,184.126 121.325 C 170.748 125.354,158.439 113.049,161.928 99.133 C 165.531 84.761,184.204 80.670,193.002 92.325 C 196.075 96.395,197.159 99.646,197.382 105.452 C 197.978 121.040,202.967 131.235,211.999 135.325 C 212.556 135.577,213.647 136.069,214.425 136.419 C 220.704 139.242,233.776 139.893,242.278 137.805 C 255.362 134.592,263.116 125.823,265.340 111.724 C 265.891 108.231,265.977 91.662,265.469 86.989 C 263.715 70.875,263.042 69.288,257.722 68.732 L 256.216 68.574 256.384 69.789 " stroke="none" fill="#06837b" fill-rule="evenodd"></path></g></svg>