<?xml version="1.0" standalone="no"?>
<!DOCTYPE svg PUBLIC "-//W3C//DTD SVG 20010904//EN"
 "http://www.w3.org/TR/2001/REC-SVG-20010904/DTD/svg10.dtd">
<svg version="1.0" xmlns="http://www.w3.org/2000/svg"
 width="941.000000pt" height="198.000000pt" viewBox="0 0 941.000000 198.000000"
 preserveAspectRatio="xMidYMid meet">

<g transform="translate(0.000000,198.000000) scale(0.100000,-0.100000)"
fill="#000000" stroke="none">
<path d="M6130 1958 c-45 -17 -77 -66 -85 -131 -3 -29 -5 -425 -3 -882 3 -771
4 -832 21 -862 24 -44 70 -66 137 -66 67 0 113 22 137 66 17 30 18 89 18 907
0 818 -1 877 -18 907 -9 18 -28 40 -41 49 -33 21 -123 27 -166 12z"/>
<path d="M8170 1954 c-42 -15 -60 -30 -75 -59 -13 -29 -15 -116 -15 -667 0
-599 1 -639 20 -712 27 -106 83 -208 159 -288 107 -114 211 -172 366 -205 91
-19 152 -19 250 2 257 54 455 242 520 495 26 98 17 292 -17 382 -63 168 -178
297 -330 373 -142 69 -267 89 -418 64 -55 -9 -91 -21 -217 -76 -10 -4 -13 58
-14 288 0 201 -4 305 -12 328 -19 53 -56 75 -135 78 -37 1 -74 0 -82 -3z m725
-956 c62 -32 128 -102 158 -166 17 -38 21 -66 22 -152 0 -95 -3 -110 -28 -162
-122 -249 -482 -249 -604 0 -25 51 -28 67 -28 162 0 120 16 168 80 239 76 83
147 113 265 108 67 -3 95 -9 135 -29z"/>
<path d="M4084 1745 c-42 -22 -58 -56 -59 -123 0 -138 29 -172 148 -172 132 0
162 33 156 170 -4 71 -7 83 -32 107 -24 25 -36 28 -105 31 -55 2 -86 -2 -108
-13z"/>
<path d="M329 1327 c-155 -54 -246 -163 -301 -362 -21 -76 -22 -98 -23 -481 0
-388 1 -403 20 -424 45 -51 144 -66 224 -34 23 9 47 26 54 38 8 15 14 126 18
386 6 400 9 426 69 508 43 60 80 76 175 76 93 0 127 -14 174 -71 60 -73 64
-100 70 -505 7 -425 3 -408 104 -442 56 -18 58 -18 114 0 101 34 97 18 104
437 4 301 8 371 22 413 35 105 92 158 182 169 136 17 218 -36 262 -169 14 -43
18 -112 22 -418 l6 -366 24 -26 c60 -64 202 -64 262 0 l24 26 0 396 c0 356 -2
405 -19 472 -52 207 -154 331 -314 380 -81 25 -303 28 -400 5 -67 -16 -148
-53 -199 -92 l-31 -24 -59 40 c-101 69 -163 84 -353 88 -152 3 -170 2 -231
-20z"/>
<path d="M4694 1339 c-55 -16 -78 -51 -82 -129 -5 -87 11 -136 52 -161 29 -18
53 -19 334 -19 183 0 302 -4 300 -9 -4 -13 -67 -79 -416 -438 -182 -188 -308
-326 -317 -347 -34 -81 -1 -174 75 -213 l45 -23 530 3 c578 2 565 1 609 60 17
23 21 42 20 105 0 92 -19 135 -65 151 -21 7 -147 11 -365 11 -217 0 -334 4
-334 10 0 6 156 175 348 376 191 201 355 380 365 397 25 46 23 126 -6 168 -47
70 -36 69 -577 68 -267 0 -499 -5 -516 -10z"/>
<path d="M7088 1340 c-226 -36 -430 -227 -508 -475 -17 -54 -22 -94 -22 -180
0 -198 63 -348 206 -491 98 -98 186 -145 323 -173 84 -18 98 -18 175 -5 110
19 195 60 267 129 32 30 61 55 64 55 4 0 7 -24 7 -54 0 -44 5 -60 25 -84 60
-71 231 -63 281 13 14 22 16 61 11 337 -5 332 -12 387 -61 525 -74 203 -230
340 -441 387 -89 19 -254 27 -327 16z m215 -315 c104 -27 177 -90 226 -195 22
-47 26 -69 26 -150 0 -84 -3 -102 -28 -153 -66 -133 -178 -202 -317 -195 -136
6 -243 76 -302 196 -29 58 -32 74 -32 151 0 107 32 185 102 254 95 92 204 123
325 92z"/>
<path d="M2663 1330 c-213 -39 -395 -195 -485 -417 -27 -67 -32 -94 -36 -191
-7 -175 23 -285 115 -424 134 -204 371 -309 598 -267 76 14 180 61 194 87 33
62 -12 199 -75 229 -31 15 -39 15 -112 -2 -66 -15 -87 -16 -132 -6 -78 17
-135 48 -186 103 -70 75 -89 125 -89 238 0 81 4 103 26 150 33 70 99 136 169
169 45 21 70 25 140 26 73 0 93 -4 141 -28 86 -42 162 -134 191 -232 5 -16 13
-89 18 -161 10 -153 22 -207 62 -291 62 -127 174 -220 313 -258 93 -25 312
-31 415 -11 180 35 318 131 392 271 51 98 67 163 78 309 13 195 -17 594 -50
656 -28 52 -175 72 -243 33 -54 -32 -59 -65 -46 -312 18 -344 0 -510 -65 -596
-15 -20 -54 -47 -93 -67 -60 -29 -77 -33 -148 -33 -89 1 -157 25 -208 73 -45
42 -55 70 -72 203 -32 253 -64 365 -137 477 -75 115 -204 211 -341 254 -72 23
-253 32 -334 18z"/>
</g>
</svg>
